<?xml version="1.0" encoding="UTF-8"?><svg id="uuid-7542361a-2dcf-4539-af45-fc1a53e896a3" xmlns="http://www.w3.org/2000/svg" viewBox="0 0 734.6 616"><path id="uuid-bcae6e1c-a6f6-408c-bde8-f338a0919d0d" d="m367.3,18c-144.16,0-263.73,105.19-286.19,243h-48.36v94h48.36c22.46,137.81,142.03,243,286.19,243,160.16,0,290-129.84,290-290S527.46,18,367.3,18Z" style="fill:#fff; stroke-width:0px;"/><path id="uuid-aee31554-d3ed-4470-84ea-f558a6c43afb" d="m644.7,373.5c-29.6,125.8-142.5,219.5-277.4,219.5s-247.8-93.7-277.4-219.5c-2.8-12.1-4.9-24.4-6.2-37h-18.2c-15.7,0-28.5-12.8-28.5-28.5s12.8-28.5,28.5-28.5h18.2c1.3-12.6,3.3-24.9,6.2-37C119.5,116.7,232.4,23,367.3,23s247.8,93.7,277.4,219.5c2.8,12.1,4.9,24.4,6.2,37h23.1c-1.2-12.6-3.1-24.9-5.7-37C638.3,103.9,514.9,0,367.3,0S96.3,103.9,66.3,242.5h-.8C29.3,242.5,0,271.8,0,308s29.3,65.5,65.5,65.5h.8c30,138.6,153.4,242.5,301,242.5s271-103.9,301-242.5c2.6-12.1,4.5-24.4,5.7-37h-23.1c-1.3,12.6-3.3,24.9-6.2,37Z" style="fill:#23498c; stroke-width:0px;"/><rect id="uuid-29d27ea0-1882-4707-b42c-18c3bfa03dfd" x="550.1" y="261" width="151.75" height="94" style="fill:#fff; stroke-width:0px;"/><path id="uuid-168e96df-8ab1-4876-be6e-198a5b6e2cdb" d="m508.9,373.5c5.4-11.6,9.4-24,11.8-37H213.9c2.4,13,6.4,25.4,11.8,37,50.1,118.8,233.2,118.7,283.2,0Zm-42.3,0c-21.3,32.2-57.9,53.5-99.4,53.5s-78.1-21.3-99.4-53.5h198.8Z" style="fill:#23498c; stroke-width:0px;"/><path id="uuid-e5ccfd89-22a0-4586-bca9-f51daa58cfb6" d="m287.3,288.3c-21.6,0-39.2,17.6-39.2,39.2v.1c7.5-12.3,22.3-20.7,39.2-20.7s31.9,8,39.2,20.7c0-.3,0,.1,0-.1,0-21.6-17.5-39.2-39.2-39.2h0Z" style="fill:#892487; fill-rule:evenodd; stroke-width:0px;"/><path id="uuid-b4344f83-0753-4aa1-8784-26b2c9565538" d="m447.3,288.3c-21.6,0-39.2,17.6-39.2,39.2v.1c7.5-12.3,22.3-20.7,39.2-20.7s31.9,8,39.2,20.7c0-.3,0,.1,0-.1,0-21.6-17.5-39.2-39.2-39.2h0Z" style="fill:#892487; fill-rule:evenodd; stroke-width:0px;"/><path id="uuid-ad4f4d59-14d9-4c28-af20-58848ec864bf" d="m669.1,242.5h-89.65c-26.58-86.01-103.99-149.75-197.15-155.99v-9.01h-30v9c-93.2,6.2-170.66,69.96-197.25,156-3.7,11.9-6.4,24.3-8,37h522.05c15.7,0,28.5,12.8,28.5,28.5s-12.8,28.5-28.5,28.5h-119.05c-2,12.8-5.3,25.2-9.8,37-26.4,69.8-93.9,119.5-173,119.5s-146.6-49.7-173-119.5c-4.5-11.8-7.8-24.2-9.8-37h-37.4c1.6,12.7,4.3,25.1,8,37,28,90.6,112.4,156.5,212.2,156.5s184.2-65.9,212.2-156.5h89.65c36.2,0,65.5-29.3,65.5-65.5s-29.3-65.5-65.5-65.5Zm-171.75-66h-34.95c-.39-1.13-.79-2.27-1.2-3.4-4.62-12.75-10.32-23.89-17.03-33.38,19.86,9.1,37.84,21.61,53.18,36.78Zm-52.22,23c5.12,21.42,5.62,39.81,5.66,43h-166.99c.05-3.19.55-21.58,5.66-43h155.66Zm-148.45-23c14.14-35.48,37.94-53.49,70.6-53.5.03,0,.05,0,.08,0,32.64.02,56.42,18.04,70.56,53.5h-141.24Zm-6.2-36.85c-6.73,9.51-12.45,20.67-17.08,33.45-.41,1.13-.81,2.27-1.2,3.4h-35.02c15.36-15.21,33.39-27.74,53.3-36.85Zm-73.03,59.85h48.44c-4.68,21.9-5.06,39.76-5.09,43h-66.55c5.83-15.42,13.68-29.86,23.2-43Zm256.34,43c-.03-3.24-.41-21.1-5.09-43h48.39c9.54,13.14,17.4,27.58,23.26,43h-66.55Z" style="fill:#23498c; stroke-width:0px;"/><g id="uuid-9901f876-2502-49c9-88d7-bd2e40260122"><text transform="translate(592.97 390.16) rotate(111.64)" style="fill:#23498c; font-family:TriumvirateCGInserat, &apos;Triumvirate CG Inserat&apos;; font-size:46px;"><tspan x="0" y="0">I</tspan></text><text transform="translate(587.34 404.19) rotate(115.17)" style="fill:#23498c; font-family:TriumvirateCGInserat, &apos;Triumvirate CG Inserat&apos;; font-size:46px;"><tspan x="0" y="0"> </tspan></text><text transform="translate(581.24 417.08) rotate(118.69)" style="fill:#23498c; font-family:TriumvirateCGInserat, &apos;Triumvirate CG Inserat&apos;; font-size:46px;"><tspan x="0" y="0">t</tspan></text><text transform="translate(574.19 430.25) rotate(123.36)" style="fill:#23498c; font-family:TriumvirateCGInserat, &apos;Triumvirate CG Inserat&apos;; font-size:46px;"><tspan x="0" y="0">h</tspan></text><text transform="translate(560.85 450.36) rotate(129)" style="fill:#23498c; font-family:TriumvirateCGInserat, &apos;Triumvirate CG Inserat&apos;; font-size:46px;"><tspan x="0" y="0">o</tspan></text><text transform="translate(546.18 468.42) rotate(134.62)" style="fill:#23498c; font-family:TriumvirateCGInserat, &apos;Triumvirate CG Inserat&apos;; font-size:46px;"><tspan x="0" y="0">u</tspan></text><text transform="translate(529.2 485.54) rotate(140.34)" style="fill:#23498c; font-family:TriumvirateCGInserat, &apos;Triumvirate CG Inserat&apos;; font-size:46px;"><tspan x="0" y="0">g</tspan></text><text transform="translate(510.58 500.9) rotate(146.08)" style="fill:#23498c; font-family:TriumvirateCGInserat, &apos;Triumvirate CG Inserat&apos;; font-size:46px;"><tspan x="0" y="0">h</tspan></text><text transform="translate(490.3 514.24) rotate(150.76)" style="fill:#23498c; font-family:TriumvirateCGInserat, &apos;Triumvirate CG Inserat&apos;; font-size:46px;"><tspan x="0" y="0">t</tspan></text><text transform="translate(477.09 521.57) rotate(154.27)" style="fill:#23498c; font-family:TriumvirateCGInserat, &apos;Triumvirate CG Inserat&apos;; font-size:46px;"><tspan x="0" y="0"> </tspan></text><text transform="translate(464.73 528.06) rotate(160.16)" style="fill:#23498c; font-family:TriumvirateCGInserat, &apos;Triumvirate CG Inserat&apos;; font-size:46px;"><tspan x="0" y="0">w</tspan></text><text transform="translate(431.7 539.55) rotate(167.24)" style="fill:#23498c; font-family:TriumvirateCGInserat, &apos;Triumvirate CG Inserat&apos;; font-size:46px;"><tspan x="0" y="0">h</tspan></text><text transform="translate(408.14 544.8) rotate(172.91)" style="fill:#23498c; font-family:TriumvirateCGInserat, &apos;Triumvirate CG Inserat&apos;; font-size:46px;"><tspan x="0" y="0">a</tspan></text><text transform="translate(384.89 547.46) rotate(177.46)" style="fill:#23498c; font-family:TriumvirateCGInserat, &apos;Triumvirate CG Inserat&apos;; font-size:46px;"><tspan x="0" y="0">t</tspan></text><text transform="translate(369.82 548.07) rotate(-179.07)" style="fill:#23498c; font-family:TriumvirateCGInserat, &apos;Triumvirate CG Inserat&apos;; font-size:46px;"><tspan x="0" y="0"> </tspan></text><text transform="translate(355.5 547.81) rotate(-175.63)" style="fill:#23498c; font-family:TriumvirateCGInserat, &apos;Triumvirate CG Inserat&apos;; font-size:46px;"><tspan x="0" y="0">I</tspan></text><text transform="translate(340.47 546.6) rotate(-172.14)" style="fill:#23498c; font-family:TriumvirateCGInserat, &apos;Triumvirate CG Inserat&apos;; font-size:46px;"><tspan x="0" y="0">&apos;</tspan></text><text transform="translate(326.46 544.82) rotate(-167.54)" style="fill:#23498c; font-family:TriumvirateCGInserat, &apos;Triumvirate CG Inserat&apos;; font-size:46px;"><tspan x="0" y="0">d</tspan></text><text transform="translate(302.81 539.33) rotate(-162.92)" style="fill:#23498c; font-family:TriumvirateCGInserat, &apos;Triumvirate CG Inserat&apos;; font-size:46px;"><tspan x="0" y="0"> </tspan></text><text transform="translate(289.26 535.32) rotate(-158.3)" style="fill:#23498c; font-family:TriumvirateCGInserat, &apos;Triumvirate CG Inserat&apos;; font-size:46px;"><tspan x="0" y="0">d</tspan></text><text transform="translate(266.87 526.32) rotate(-152.62)" style="fill:#23498c; font-family:TriumvirateCGInserat, &apos;Triumvirate CG Inserat&apos;; font-size:46px;"><tspan x="0" y="0">o</tspan></text><text transform="translate(246.2 515.35) rotate(-148.14)" style="fill:#23498c; font-family:TriumvirateCGInserat, &apos;Triumvirate CG Inserat&apos;; font-size:46px;"><tspan x="0" y="0"> </tspan></text><text transform="translate(234.08 508.38) rotate(-142.3)" style="fill:#23498c; font-family:TriumvirateCGInserat, &apos;Triumvirate CG Inserat&apos;; font-size:46px;"><tspan x="0" y="0">w</tspan></text><text transform="translate(206.65 486.64) rotate(-135.41)" style="fill:#23498c; font-family:TriumvirateCGInserat, &apos;Triumvirate CG Inserat&apos;; font-size:46px;"><tspan x="0" y="0">a</tspan></text><text transform="translate(190.12 470.21) rotate(-130.07)" style="fill:#23498c; font-family:TriumvirateCGInserat, &apos;Triumvirate CG Inserat&apos;; font-size:46px;"><tspan x="0" y="0">s</tspan></text><text transform="translate(176.24 453.4) rotate(-125.8)" style="fill:#23498c; font-family:TriumvirateCGInserat, &apos;Triumvirate CG Inserat&apos;; font-size:46px;"><tspan x="0" y="0">,</tspan></text><text transform="translate(167.92 441.78) rotate(-122.4)" style="fill:#23498c; font-family:TriumvirateCGInserat, &apos;Triumvirate CG Inserat&apos;; font-size:46px;"><tspan x="0" y="0"> </tspan></text><text transform="translate(160.31 429.73) rotate(-118.89)" style="fill:#23498c; font-family:TriumvirateCGInserat, &apos;Triumvirate CG Inserat&apos;; font-size:46px;"><tspan x="0" y="0">I</tspan></text><text transform="translate(153.07 416.49) rotate(-115.38)" style="fill:#23498c; font-family:TriumvirateCGInserat, &apos;Triumvirate CG Inserat&apos;; font-size:46px;"><tspan x="0" y="0">&apos;</tspan></text><text transform="translate(146.88 403.79) rotate(-110.77)" style="fill:#23498c; font-family:TriumvirateCGInserat, &apos;Triumvirate CG Inserat&apos;; font-size:46px;"><tspan x="0" y="0">d</tspan></text><text transform="translate(138.51 381) rotate(-106.15)" style="fill:#23498c; font-family:TriumvirateCGInserat, &apos;Triumvirate CG Inserat&apos;; font-size:46px;"><tspan x="0" y="0"> </tspan></text><text transform="translate(134.44 367.48) rotate(-101.54)" style="fill:#23498c; font-family:TriumvirateCGInserat, &apos;Triumvirate CG Inserat&apos;; font-size:46px;"><tspan x="0" y="0">p</tspan></text><text transform="translate(129.81 343.69) rotate(-96.65)" style="fill:#23498c; font-family:TriumvirateCGInserat, &apos;Triumvirate CG Inserat&apos;; font-size:46px;"><tspan x="0" y="0">r</tspan></text><text transform="translate(127.81 327.18) rotate(-91.92)" style="fill:#23498c; font-family:TriumvirateCGInserat, &apos;Triumvirate CG Inserat&apos;; font-size:46px;"><tspan x="0" y="0">e</tspan></text><text transform="translate(127.24 303.77) rotate(-87.42)" style="fill:#23498c; font-family:TriumvirateCGInserat, &apos;Triumvirate CG Inserat&apos;; font-size:46px;"><tspan x="0" y="0">t</tspan></text><text transform="translate(127.8 288.83) rotate(-82.87)" style="fill:#23498c; font-family:TriumvirateCGInserat, &apos;Triumvirate CG Inserat&apos;; font-size:46px;"><tspan x="0" y="0">e</tspan></text><text transform="translate(130.73 265.74) rotate(-77.19)" style="fill:#23498c; font-family:TriumvirateCGInserat, &apos;Triumvirate CG Inserat&apos;; font-size:46px;"><tspan x="0" y="0">n</tspan></text><text transform="translate(136.14 242.23) rotate(-71.39)" style="fill:#23498c; font-family:TriumvirateCGInserat, &apos;Triumvirate CG Inserat&apos;; font-size:46px;"><tspan x="0" y="0">d</tspan></text><text transform="translate(144.12 219.32) rotate(-66.78)" style="fill:#23498c; font-family:TriumvirateCGInserat, &apos;Triumvirate CG Inserat&apos;; font-size:46px;"><tspan x="0" y="0"> </tspan></text><text transform="translate(149.78 206.22) rotate(-63.26)" style="fill:#23498c; font-family:TriumvirateCGInserat, &apos;Triumvirate CG Inserat&apos;; font-size:46px;"><tspan x="0" y="0">I</tspan></text><text transform="translate(156.63 192.77) rotate(-59.75)" style="fill:#23498c; font-family:TriumvirateCGInserat, &apos;Triumvirate CG Inserat&apos;; font-size:46px;"><tspan x="0" y="0"> </tspan></text><text transform="translate(163.25 180.46) rotate(-53.9)" style="fill:#23498c; font-family:TriumvirateCGInserat, &apos;Triumvirate CG Inserat&apos;; font-size:46px;"><tspan x="0" y="0">w</tspan></text><text transform="translate(184.21 152.44) rotate(-47.01)" style="fill:#23498c; font-family:TriumvirateCGInserat, &apos;Triumvirate CG Inserat&apos;; font-size:46px;"><tspan x="0" y="0">a</tspan></text><text transform="translate(200.18 135.45) rotate(-41.67)" style="fill:#23498c; font-family:TriumvirateCGInserat, &apos;Triumvirate CG Inserat&apos;; font-size:46px;"><tspan x="0" y="0">s</tspan></text><text transform="translate(216.58 121.11) rotate(-37.41)" style="fill:#23498c; font-family:TriumvirateCGInserat, &apos;Triumvirate CG Inserat&apos;; font-size:46px;"><tspan x="0" y="0"> </tspan></text><text transform="translate(227.75 112.41) rotate(-32.93)" style="fill:#23498c; font-family:TriumvirateCGInserat, &apos;Triumvirate CG Inserat&apos;; font-size:46px;"><tspan x="0" y="0">o</tspan></text><text transform="translate(247.29 99.8) rotate(-27.27)" style="fill:#23498c; font-family:TriumvirateCGInserat, &apos;Triumvirate CG Inserat&apos;; font-size:46px;"><tspan x="0" y="0">n</tspan></text><text transform="translate(268.76 88.82) rotate(-21.6)" style="fill:#23498c; font-family:TriumvirateCGInserat, &apos;Triumvirate CG Inserat&apos;; font-size:46px;"><tspan x="0" y="0">e</tspan></text><text transform="translate(290.63 80.42) rotate(-17.08)" style="fill:#23498c; font-family:TriumvirateCGInserat, &apos;Triumvirate CG Inserat&apos;; font-size:46px;"><tspan x="0" y="0"> </tspan></text><text transform="translate(304.09 76.15) rotate(-12.57)" style="fill:#23498c; font-family:TriumvirateCGInserat, &apos;Triumvirate CG Inserat&apos;; font-size:46px;"><tspan x="0" y="0">o</tspan></text><text transform="translate(326.99 71.27) rotate(-7.97)" style="fill:#23498c; font-family:TriumvirateCGInserat, &apos;Triumvirate CG Inserat&apos;; font-size:46px;"><tspan x="0" y="0">f</tspan></text><text transform="translate(341.96 69.24) rotate(-4.48)" style="fill:#23498c; font-family:TriumvirateCGInserat, &apos;Triumvirate CG Inserat&apos;; font-size:46px;"><tspan x="0" y="0"> </tspan></text><text transform="translate(356.21 68.16) rotate(-1.01)" style="fill:#23498c; font-family:TriumvirateCGInserat, &apos;Triumvirate CG Inserat&apos;; font-size:46px;"><tspan x="0" y="0">t</tspan></text><text transform="translate(371.14 67.76) rotate(3.59)" style="fill:#23498c; font-family:TriumvirateCGInserat, &apos;Triumvirate CG Inserat&apos;; font-size:46px;"><tspan x="0" y="0">h</tspan></text><text transform="translate(395.21 69.35) rotate(9.23)" style="fill:#23498c; font-family:TriumvirateCGInserat, &apos;Triumvirate CG Inserat&apos;; font-size:46px;"><tspan x="0" y="0">o</tspan></text><text transform="translate(418.18 73.18) rotate(14.62)" style="fill:#23498c; font-family:TriumvirateCGInserat, &apos;Triumvirate CG Inserat&apos;; font-size:46px;"><tspan x="0" y="0">s</tspan></text><text transform="translate(439.12 78.67) rotate(20.02)" style="fill:#23498c; font-family:TriumvirateCGInserat, &apos;Triumvirate CG Inserat&apos;; font-size:46px;"><tspan x="0" y="0">e</tspan></text><text transform="translate(461.06 86.91) rotate(24.54)" style="fill:#23498c; font-family:TriumvirateCGInserat, &apos;Triumvirate CG Inserat&apos;; font-size:46px;"><tspan x="0" y="0"> </tspan></text><text transform="translate(473.96 92.54) rotate(29.53)" style="fill:#23498c; font-family:TriumvirateCGInserat, &apos;Triumvirate CG Inserat&apos;; font-size:46px;"><tspan x="0" y="0">D</tspan></text><text transform="translate(497.77 106.2) rotate(35.67)" style="fill:#23498c; font-family:TriumvirateCGInserat, &apos;Triumvirate CG Inserat&apos;; font-size:46px;"><tspan x="0" y="0">u</tspan></text><text transform="translate(517.33 120.39) rotate(41.1)" style="fill:#23498c; font-family:TriumvirateCGInserat, &apos;Triumvirate CG Inserat&apos;; font-size:46px;"><tspan x="0" y="0">s</tspan></text><text transform="translate(533.65 134.62) rotate(46.54)" style="fill:#23498c; font-family:TriumvirateCGInserat, &apos;Triumvirate CG Inserat&apos;; font-size:46px;"><tspan x="0" y="0">k</tspan></text><text transform="translate(550.21 152.19) rotate(52.27)" style="fill:#23498c; font-family:TriumvirateCGInserat, &apos;Triumvirate CG Inserat&apos;; font-size:46px;"><tspan x="0" y="0">b</tspan></text><text transform="translate(564.92 171.33) rotate(57.91)" style="fill:#23498c; font-family:TriumvirateCGInserat, &apos;Triumvirate CG Inserat&apos;; font-size:46px;"><tspan x="0" y="0">o</tspan></text><text transform="translate(577.17 191.23) rotate(62.68)" style="fill:#23498c; font-family:TriumvirateCGInserat, &apos;Triumvirate CG Inserat&apos;; font-size:46px;"><tspan x="0" y="0">r</tspan></text><text transform="translate(584.88 205.93) rotate(67.58)" style="fill:#23498c; font-family:TriumvirateCGInserat, &apos;Triumvirate CG Inserat&apos;; font-size:46px;"><tspan x="0" y="0">n</tspan></text></g></svg>